<svg viewBox="0 0 900 800" xmlns="http://www.w3.org/2000/svg">
  <defs>
    <filter id="shadow">
      <feDropShadow dx="0" dy="2" stdDeviation="4" flood-opacity="0.15"/>
    </filter>
    
    <linearGradient id="buttonGradient" x1="0%" y1="0%" x2="0%" y2="100%">
      <stop offset="0%" style="stop-color:#d4914a;stop-opacity:1" />
      <stop offset="100%" style="stop-color:#b87532;stop-opacity:1" />
    </linearGradient>
  </defs>

  <!-- Background -->
  <rect width="900" height="800" fill="#f5f5f5"/>
  
  <!-- Navigation bar -->
  <rect width="900" height="70" fill="white" filter="url(#shadow)"/>
  
  <!-- Logo -->
  <text x="40" y="48" font-family="Georgia, serif" font-size="28" fill="#2c2c2c" font-style="italic">Sassy-me</text>
  
  <!-- Navigation items -->
  <text x="380" y="45" font-family="Arial, sans-serif" font-size="15" fill="#333" font-weight="600">Home</text>
  <rect x="375" y="52" width="50" height="3" fill="#d4914a"/>
  
  <text x="480" y="45" font-family="Arial, sans-serif" font-size="15" fill="#777">Trending</text>
  <text x="590" y="45" font-family="Arial, sans-serif" font-size="15" fill="#777">Tags</text>
  <text x="670" y="45" font-family="Arial, sans-serif" font-size="15" fill="#777">Friends</text>
  
  <!-- New Post button -->
  <rect x="770" y="27" width="100" height="36" fill="#d4914a" rx="6"/>
  <text x="795" y="50" font-family="Arial, sans-serif" font-size="14" fill="white" font-weight="500">+ New Post</text>
  
  <line x1="0" y1="70" x2="900" y2="70" stroke="#e0e0e0" stroke-width="1"/>
  
  <!-- FEATURED POST: Epic Movie Night with Theater Image -->
  <rect x="50" y="100" width="800" height="380" fill="white" rx="10" filter="url(#shadow)"/>
  
  <!-- Theater Image -->
  <rect x="70" y="120" width="760" height="240" fill="#2a1a1a" rx="8"/>
  
  <!-- Theater screen -->
  <rect x="150" y="160" width="600" height="140" fill="#e8e8e8" rx="4"/>
  <rect x="165" y="170" width="570" height="120" fill="#f8f8f8"/>
  
  <!-- Screen glow effects -->
  <rect x="140" y="140" width="15" height="25" fill="#f4d488" opacity="0.2"/>
  <rect x="165" y="135" width="18" height="30" fill="#f4d488" opacity="0.2"/>
  <rect x="750" y="140" width="15" height="25" fill="#f4d488" opacity="0.2"/>
  <rect x="725" y="135" width="18" height="30" fill="#f4d488" opacity="0.2"/>
  
  <!-- Theater ceiling lights -->
  <ellipse cx="200" cy="140" rx="12" ry="6" fill="#f4d088" opacity="0.3"/>
  <ellipse cx="300" cy="140" rx="12" ry="6" fill="#f4d088" opacity="0.3"/>
  <ellipse cx="450" cy="140" rx="12" ry="6" fill="#f4d088" opacity="0.3"/>
  <ellipse cx="600" cy="140" rx="12" ry="6" fill="#f4d088" opacity="0.3"/>
  <ellipse cx="700" cy="140" rx="12" ry="6" fill="#f4d088" opacity="0.3"/>
  
  <!-- Theater seats (rows) -->
  <rect x="100" y="320" width="700" height="30" fill="#8a4a3a" rx="5"/>
  
  <!-- Individual seats - Front row -->
  <rect x="110" y="325" width="50" height="22" fill="#a85a4a" rx="3"/>
  <rect x="170" y="325" width="50" height="22" fill="#a85a4a" rx="3"/>
  <rect x="230" y="325" width="50" height="22" fill="#a85a4a" rx="3"/>
  <rect x="290" y="325" width="50" height="22" fill="#a85a4a" rx="3"/>
  <rect x="350" y="325" width="50" height="22" fill="#a85a4a" rx="3"/>
  <rect x="410" y="325" width="50" height="22" fill="#a85a4a" rx="3"/>
  <rect x="470" y="325" width="50" height="22" fill="#a85a4a" rx="3"/>
  <rect x="530" y="325" width="50" height="22" fill="#a85a4a" rx="3"/>
  <rect x="590" y="325" width="50" height="22" fill="#a85a4a" rx="3"/>
  <rect x="650" y="325" width="50" height="22" fill="#a85a4a" rx="3"/>
  <rect x="710" y="325" width="50" height="22" fill="#a85a4a" rx="3"/>
  
  <!-- Seat highlights -->
  <rect x="115" y="327" width="40" height="8" fill="#c87a6a" opacity="0.6" rx="2"/>
  <rect x="175" y="327" width="40" height="8" fill="#c87a6a" opacity="0.6" rx="2"/>
  <rect x="295" y="327" width="40" height="8" fill="#c87a6a" opacity="0.6" rx="2"/>
  <rect x="415" y="327" width="40" height="8" fill="#c87a6a" opacity="0.6" rx="2"/>
  <rect x="535" y="327" width="40" height="8" fill="#c87a6a" opacity="0.6" rx="2"/>
  <rect x="655" y="327" width="40" height="8" fill="#c87a6a" opacity="0.6" rx="2"/>
  
  <!-- Post Content Below Image -->
  <text x="85" y="390" font-family="Arial, sans-serif" font-size="20" fill="#2c2c2c" font-weight="600">Epic Movie Night!</text>
  
  <rect x="85" y="405" width="115" height="24" fill="#4a6a8a" rx="12"/>
  <text x="110" y="423" font-family="Arial, sans-serif" font-size="12" fill="white" font-weight="500">Cinema / Movies</text>
  
  <rect x="210" y="405" width="60" height="24" fill="#d4a44a" rx="12"/>
  <text x="225" y="423" font-family="Arial, sans-serif" font-size="12" fill="white" font-weight="500">Food</text>
  
  <text x="280" y="423" font-size="20">⭐⭐⭐⭐⭐</text>
  
  <!-- Post text -->
  <text x="85" y="458" font-family="Arial, sans-serif" font-size="15" fill="#555">Best movie night ever! 🍿 🎬</text>
  
  <!-- Engagement -->
  <text x="730" y="470" font-family="Arial, sans-serif" font-size="14" fill="#888">❤️ 87</text>
  <text x="790" y="470" font-family="Arial, sans-serif" font-size="14" fill="#888">💬 24</text>
  
  <!-- Additional posts preview -->
  <rect x="50" y="510" width="800" height="80" fill="white" rx="10" filter="url(#shadow)" opacity="0.6"/>
  <text x="450" y="555" font-family="Arial, sans-serif" font-size="14" fill="#aaa" text-anchor="middle">More posts below...</text>
</svg>